<svg width="57px" height="57px" viewBox="0 0 57 57" version="1.1" xmlns="http://www.w3.org/2000/svg" xmlns:xlink="http://www.w3.org/1999/xlink">
    <!-- Generator: Sketch 59.1 (86144) - https://sketch.com -->
    <title>icon data</title>
    <desc>Created with Sketch.</desc>
    <g id="Presentatie" stroke="none" stroke-width="1" fill="none" fill-rule="evenodd">
        <g id="02-Kleuren-en-icons" transform="translate(-116.000000, -336.000000)">
            <g id="Group-9" transform="translate(118.000000, 336.000000)">
                <g id="icon-data" transform="translate(0.000000, 2.000000)">
                    <g id="icon-type-bgr3" fill="#FFFFFF" stroke="#007BC7" stroke-width="3.6">
                        <circle id="Oval" cx="26.4" cy="26.4" r="26.4"></circle>
                    </g>
                    <g transform="translate(12.000000, 12.000000)" fill="#007BC7" fill-rule="nonzero" id="Path">
                        <path d="M15.8394,5.45106 C16.5012,6.38352 17.07378,7.3836 17.52054,8.45148 C18.47004,8.1435 19.4622,7.93482 20.4807,7.81326 C20.74362,6.7731 21.67806,6 22.8,6 C23.97408,6 24.94746,6.8442 25.15542,7.95792 C25.98996,8.11326 26.80314,8.3307 27.58608,8.61294 C25.65822,4.22682 21.60876,0.9864 16.73526,0.19134 C16.24182,0.90246 15.8034,1.65372 15.41196,2.43276 C15.89292,2.87166 16.2,3.49758 16.2,4.2 C16.2,4.66014 16.06398,5.08584 15.8394,5.45106 Z"></path>
                        <path d="M14.97432,6.28104 C14.65698,6.46062 14.29812,6.5706 13.91196,6.58872 C13.63182,7.82568 13.4769,9.10986 13.45902,10.42746 C13.4694,10.43316 13.48002,10.4385 13.49028,10.44444 C14.3955,9.8202 15.3684,9.28818 16.39752,8.86404 C16.01232,7.95006 15.53124,7.08726 14.97432,6.28104 Z"></path>
                        <path d="M25.11378,19.2774 C25.1646,19.44384 25.2,19.61694 25.2,19.8 C25.2,20.79414 24.39414,21.6 23.4,21.6 C22.84638,21.6 22.35732,21.3447 22.02714,20.95152 C20.93058,21.39528 19.77288,21.71712 18.56958,21.90156 C18.52002,22.2924 18.38568,22.6557 18.17142,22.96452 C19.37826,24.30774 20.77014,25.48032 22.3206,26.42442 C25.86738,24.08334 28.31688,20.217 28.7343,15.75828 C27.72636,17.11788 26.50158,18.30648 25.11378,19.2774 Z"></path>
                        <path d="M22.8,10.8 C21.68976,10.8 20.76474,10.04226 20.4906,9.01848 C19.61346,9.13068 18.75798,9.31212 17.93718,9.57426 C18.44412,11.10996 18.72246,12.74874 18.72246,14.45214 C18.72246,16.3305 18.38142,18.1287 17.76924,19.79748 C18.05442,20.04594 18.28314,20.35488 18.42576,20.71194 C19.5321,20.53992 20.5962,20.24292 21.60342,19.83384 C21.60318,19.82232 21.6,19.81158 21.6,19.8 C21.6,18.80586 22.40586,18 23.4,18 C23.7729,18 24.11922,18.1134 24.40656,18.30756 C26.19918,17.05752 27.69798,15.41466 28.76892,13.49706 C28.69662,12.32976 28.4883,11.1993 28.15422,10.12368 C27.17766,9.69018 26.14242,9.36642 25.06596,9.15828 C24.74724,10.10982 23.85882,10.8 22.8,10.8 Z"></path>
                        <path d="M13.8,1.8 C13.99074,1.8 14.17392,1.82784 14.35182,1.8699 C14.67156,1.24032 15.02064,0.62808 15.4029,0.0387 C15.07116,0.01584 14.73756,0 14.4,0 C12.96492,0 11.58006,0.21276 10.27206,0.6036 C11.1066,1.03662 11.89392,1.5462 12.63384,2.11446 C12.98046,1.92018 13.37436,1.8 13.8,1.8 Z"></path>
                        <path d="M10.8,12 C10.8,11.1219 11.4294,10.39284 12.2613,10.23414 C12.29172,8.90034 12.45654,7.60002 12.74262,6.34452 C11.94996,5.95266 11.4,5.14404 11.4,4.2 C11.4,3.741 11.53548,3.31644 11.75898,2.95188 C10.81752,2.24502 9.79692,1.638 8.69664,1.17606 C5.78154,2.43504 3.36672,4.6293 1.82718,7.38102 C1.95504,9.47904 2.5362,11.45316 3.46764,13.21338 C3.51234,13.21086 3.55464,13.2 3.6,13.2 C4.92552,13.2 6,14.27448 6,15.6 C6,15.91062 5.93634,16.20528 5.82894,16.47774 C6.38346,17.05344 6.984,17.58444 7.6272,18.0618 C8.35122,16.03374 9.4872,14.20242 10.92858,12.6591 C10.84782,12.45456 10.8,12.23328 10.8,12 Z"></path>
                        <path d="M11.71734,13.5597 C10.35744,15.04068 9.3027,16.80522 8.65524,18.75738 C10.24842,19.73952 12.04938,20.41266 13.97454,20.71104 C14.1027,20.39052 14.29704,20.10552 14.54208,19.87056 C13.54836,18.00222 12.85146,15.95442 12.5058,13.79046 C12.2193,13.7754 11.95296,13.69338 11.71734,13.5597 Z"></path>
                        <path d="M14.48616,23.27664 C14.13024,22.91286 13.89846,22.4346 13.83066,21.9039 C11.8467,21.5994 9.98316,20.92542 8.31756,19.9458 C8.06178,21.0201 7.92252,22.13946 7.92252,23.292 C7.92252,24.78336 8.15784,26.21796 8.57898,27.57072 C8.65686,27.60522 8.73348,27.642 8.81208,27.67512 C11.0586,26.70702 13.00338,25.18134 14.48616,23.27664 Z"></path>
                        <path d="M5.11458,17.44758 C4.7004,17.78754 4.17762,18 3.6,18 C2.27448,18 1.2,16.92546 1.2,15.6 C1.2,14.74968 1.64496,14.00694 2.31198,13.58064 C1.65054,12.29088 1.161,10.89912 0.87984,9.43344 C0.31092,10.98162 0,12.65448 0,14.4 C0,19.70322 2.86872,24.33366 7.13712,26.8326 C6.87042,25.69422 6.72246,24.51066 6.72246,23.292 C6.72246,21.8979 6.90894,20.54706 7.25364,19.26018 C6.48648,18.72108 5.77206,18.11256 5.11458,17.44758 Z"></path>
                        <path d="M17.26098,23.7426 C16.93986,23.90208 16.58292,24 16.2,24 C15.96228,24 15.73728,23.95482 15.5205,23.89044 C14.15154,25.68126 12.40854,27.16992 10.40328,28.2336 C11.67282,28.59984 13.01262,28.8 14.4,28.8 C16.84584,28.8 19.14804,28.1883 21.1653,27.1125 C19.71852,26.16534 18.40998,25.0269 17.26098,23.7426 Z"></path>
                        <path d="M16.2,19.2 C16.36968,19.2 16.53474,19.2186 16.69446,19.25208 C17.2269,17.75022 17.52246,16.13658 17.52246,14.45214 C17.52246,12.89262 17.27136,11.39244 16.81284,9.98598 C15.9174,10.3572 15.0684,10.81686 14.2752,11.35308 C14.35302,11.55438 14.4,11.77122 14.4,12 C14.4,12.59166 14.11068,13.11204 13.66998,13.44012 C13.98306,15.5241 14.64126,17.49372 15.59118,19.2876 C15.78672,19.23612 15.98832,19.2 16.2,19.2 Z"></path>
                    </g>
                </g>
            </g>
        </g>
    </g>
</svg>
