<?xml version="1.0" encoding="UTF-8"?>
<svg width="57px" height="57px" viewBox="0 0 57 57" version="1.1" xmlns="http://www.w3.org/2000/svg" xmlns:xlink="http://www.w3.org/1999/xlink">
  <g id="Presentatie" stroke="none" stroke-width="1" fill="none" fill-rule="evenodd">
    <g id="02-Kleuren-en-icons" transform="translate(-537.000000, -336.000000)">
      <g id="Group-14" transform="translate(539.000000, 336.000000)">
        <g id="icon-community" transform="translate(0.000000, 2.000000)">
          <circle id="Oval" stroke="#72BE19" stroke-width="3.621" fill="#FFFFFF" cx="26.554" cy="26.554" r="26.554"></circle>
          <g id="2035-foto-toevoegen" transform="translate(9.052500, 16.294500)">
            <g id="Group">
              <path
                d="M0.311891638,18.3461768 C0.311891638,18.3461768 0.382657965,14.8550359 1.25797569,13.9281981 C1.94367291,13.2016834 4.02249314,12.558547 4.90267903,12.3110399 C5.11747145,12.250716 5.25520457,12.0617409 5.29842428,11.8414691 C5.35814821,11.536266 5.37156531,11.2152951 5.37156531,11.2152951 C4.8265696,10.5885239 4.42073184,9.83752127 4.29522847,8.77582072 C3.73515336,8.60022444 3.62318583,7.88923865 3.62318583,7.44594761 C3.62318583,7.00265657 3.69988893,6.76291388 3.85650099,6.68861396 C4.04457794,6.59950183 4.21852537,6.71991071 4.27160012,6.76243607 C4.19192863,5.84145146 4.07568663,3.78339129 4.55941484,3.13452119 C4.99042452,2.55636743 5.80851176,2.17113067 6.55607015,1.95898169 C7.63169458,1.65353971 8.04988083,2.08177964 8.6637431,2.42102689 C9.59985338,2.17531154 10.0907057,2.47537812 10.4948812,3.22697801 C10.8711538,3.92709356 10.7458879,5.81469393 10.659211,6.72026907 C10.7423259,6.67248777 10.8694915,6.62387029 11.0063935,6.68861396 C11.1628868,6.76303334 11.2397087,7.00265657 11.2397087,7.44594761 C11.2397087,7.88923865 11.1276224,8.60022444 10.567666,8.77582072 C10.4253022,9.80240202 10.0125778,10.5860154 9.45618348,11.2383496 C9.45618348,11.2383496 9.47862448,11.5804638 9.55342782,11.8521005 C9.61160819,12.0635327 9.74150477,12.2479686 9.95190398,12.3051867 C10.2506424,12.3862954 10.691982,12.5131548 11.1721482,12.672386 C10.122883,13.0978785 9.17679897,13.6026879 8.63215947,14.1795277 C7.8183467,15.0416219 7.33307493,16.8433354 7.05677754,18.3461768 L0.311891638,18.3461768 L0.311891638,18.3461768 Z M25.2240136,15.0567924 C26.3257598,16.2236119 26.7395529,20.5788776 26.7395529,20.5788776 L8.0199595,20.5788776 C8.0199595,20.5788776 8.44847573,16.2236119 9.55010322,15.0567924 C10.4926252,14.0582827 13.5196667,13.1865128 14.3962906,12.9499953 C14.4057894,12.9550124 14.4127948,12.9596711 14.4224124,12.9646881 C15.596231,13.5792751 16.6856287,13.4157436 17.0338798,13.3001128 C17.2420231,13.2309494 17.2420231,13.1185439 17.1894233,13.0238175 C16.6090444,12.9978961 16.0514627,12.8601665 15.7419194,12.5978471 C14.570238,11.60531 13.6183359,10.4851968 13.3896514,8.57083893 C12.67712,8.34996986 12.5346375,7.45478715 12.5346375,6.89670153 C12.5346375,6.33885482 12.632238,6.03687699 12.8313573,5.94334509 C12.9389317,5.89305526 13.0448437,5.89735558 13.1350826,5.92220186 C13.0327327,4.74558727 12.915897,2.45495161 13.5219227,1.66954645 C14.0836601,0.941717749 15.1495482,0.505474453 16.1234164,0.238496423 C17.5250884,-0.146143065 18.0698466,0.276243652 18.8698861,0.703408501 C20.0896553,0.394144017 20.7897195,0.639501008 21.3161925,1.58557081 C21.7977835,2.45100966 21.7264235,4.75418791 21.654826,5.91658756 C21.738297,5.89866957 21.8319793,5.89819175 21.9280363,5.94322563 C22.1271556,6.03663808 22.2247562,6.33873537 22.2247562,6.89658208 C22.2247562,7.4546677 22.0821549,8.34985041 21.3696235,8.57071948 C21.1822589,9.90728198 20.6294267,10.9186927 19.884243,11.75606 C19.884243,11.75606 19.9174889,12.0797784 19.9799438,12.3620464 C20.0504726,12.6812255 20.2618217,12.9498759 20.5755208,13.0358822 C21.7482708,13.3582866 24.3745802,14.1568316 25.2240136,15.0567924 Z"
                id="Shape"></path>
              <path
                d="M11.171792,12.672386 C10.6916258,12.5131548 10.2502862,12.3862954 9.95154777,12.3051867 C9.74114856,12.2479686 9.61125198,12.0635327 9.55307161,11.8521005 C9.47826828,11.5804638 9.45582728,11.2383496 9.45582728,11.2383496 C10.0122216,10.5860154 10.424946,9.80240202 10.5673098,8.77582072 C11.1272662,8.60022444 11.2393525,7.88923865 11.2393525,7.44594761 C11.2393525,7.00265657 11.1626494,6.76291388 11.0060373,6.68861396 C10.8692541,6.62387029 10.7419697,6.67248777 10.6588548,6.72026907 C10.7456505,5.81457447 10.8707976,3.9269741 10.494525,3.22697801 C10.0904682,2.47537812 9.59949717,2.17531154 8.66338689,2.42102689 C8.04940589,2.08166018 7.63133837,1.65342026 6.55571394,1.95898169 C5.80815556,2.17113067 4.99018705,2.55636743 4.55905864,3.13452119 C4.07544915,3.78339129 4.19157242,5.84145146 4.27124391,6.76243607 C4.21816916,6.72003017 4.04422173,6.59950183 3.85614478,6.68861396 C3.69953272,6.76303334 3.62282962,7.00265657 3.62282962,7.44594761 C3.62282962,7.88923865 3.73479715,8.60022444 4.29487226,8.77582072 C4.42037563,9.83752127 4.8262134,10.5886434 5.37120911,11.2152951 C5.37120911,11.2152951 5.357792,11.536266 5.29806807,11.8414691 C5.25484837,12.0616215 5.11723398,12.2505965 4.90232282,12.3110399 C4.02213694,12.558547 1.9433167,13.2016834 1.25761949,13.9281981 C0.382420495,14.8550359 0.311535432,18.3461768 0.311535432,18.3461768 L7.05618386,18.3461768 C7.33248125,16.8433354 7.81775303,15.0416219 8.63156579,14.1796472 C9.17644277,13.6026879 10.1226456,13.0978785 11.171792,12.672386 Z"
                id="Path" fill="#72BE19" fill-rule="nonzero"></path>
              <path
                d="M33.5297957,14.5347817 C33.2311761,14.21835 32.6363115,13.8736079 31.9820791,13.5557428 C31.1251654,13.1294141 30.167564,12.7521808 29.6574765,12.559861 C29.4622754,12.4863973 29.3384344,12.3059034 29.3040011,12.0991298 C29.2611376,11.8421858 29.2132872,11.4616078 29.1755293,11.1411147 C30.467846,11.0883163 31.536465,10.9600235 31.9808918,10.7896832 C32.0686373,10.7561168 32.1130443,10.6751275 32.0738616,10.5890017 C31.8308102,10.0552846 31.1987814,8.30015785 31.1193474,7.3833541 C30.924265,5.133452 30.932339,1.10704106 27.868252,2.1171378 C27.868252,2.1171378 25.9224155,0.86658165 24.3420467,2.95892491 C23.2302079,4.4309474 23.5011622,6.37194337 23.4566364,7.45418988 C23.4250528,8.22406613 22.7988421,10.0016501 22.5353681,10.4621424 C22.479325,10.5603329 22.4984414,10.6594791 22.6041159,10.6980625 C23.0810762,10.8722254 24.1550384,11.0072076 25.4173149,11.0873607 C25.3820505,11.4090483 25.3324191,11.8083806 25.2761385,12.0990103 C25.2362433,12.3049478 25.1178641,12.4862778 24.922663,12.5597416 C24.7083455,12.640492 24.4125755,12.755406 24.0809474,12.8914633 C25.0294062,13.3077579 25.7255521,13.7382674 26.1421948,14.1800055 C26.9563638,15.0420997 27.4372424,16.8428575 27.709384,18.3459379 L33.5892822,18.3459379 C33.8586929,18.2034302 34.1433018,18.0877994 34.4320664,17.9806498 C34.3895591,17.1862857 34.2183426,15.2640438 33.5297957,14.5347817 Z"
                id="Path" fill="#72BE19" fill-rule="nonzero"></path>
              <path
                d="M19.9799438,12.3622853 C19.9174889,12.0800173 19.884243,11.7562989 19.884243,11.7562989 C20.6294267,10.9189316 21.1822589,9.90752088 21.3696235,8.57095839 C22.0820362,8.35008931 22.2247562,7.4549066 22.2247562,6.89682099 C22.2247562,6.33897427 22.1270369,6.03699644 21.9280363,5.94346454 C21.8319793,5.89843066 21.7381783,5.89878902 21.654826,5.91682646 C21.7264235,4.75442682 21.7977835,2.45124856 21.3161925,1.58580971 C20.7897195,0.639739914 20.0896553,0.394382924 18.8698861,0.703647407 C18.0698466,0.276602012 17.5250884,-0.145904159 16.1234164,0.23873533 C15.1495482,0.50571336 14.0836601,0.941956655 13.5219227,1.66978535 C12.915897,2.45519052 13.0327327,4.74582618 13.1350826,5.92244077 C13.0448437,5.89759449 12.9389317,5.89329417 12.8313573,5.94358399 C12.632238,6.03699644 12.5346375,6.33909373 12.5346375,6.89694044 C12.5346375,7.45502606 12.67712,8.35020877 13.3896514,8.57107784 C13.6183359,10.4855552 14.570238,11.6055489 15.7419194,12.5980861 C16.0514627,12.8604054 16.6090444,12.9980156 17.1894233,13.0240564 C17.2420231,13.1187828 17.2420231,13.2313078 17.0338798,13.3003518 C16.6856287,13.4159825 15.596231,13.5796335 14.4224124,12.964927 C14.4126761,12.9597905 14.4057894,12.9551318 14.3962906,12.9502343 C13.5196667,13.1867517 10.4926252,14.0584021 9.55010322,15.0570314 C8.44847573,16.2238508 8.0199595,20.5791165 8.0199595,20.5791165 L26.7394341,20.5791165 C26.7394341,20.5791165 26.3256411,16.2238508 25.2238949,15.0570314 C24.3745802,14.1570705 21.7481521,13.3585255 20.575402,13.0362406 C20.2618217,12.9499953 20.0504726,12.6814644 19.9799438,12.3622853 Z"
                id="Path" fill="#72BE19" fill-rule="nonzero"></path>
            </g>
          </g>
        </g>
      </g>
    </g>
  </g>
</svg>
