<?xml version="1.0" encoding="UTF-8"?>
<svg width="80px" height="80px" viewBox="0 0 80 80" version="1.1" xmlns="http://www.w3.org/2000/svg" xmlns:xlink="http://www.w3.org/1999/xlink">
    <title>icon-impact</title>
    <defs>
        <path d="M40,0 C17.90861,0 0,17.90861 0,40 C0,62.09139 17.90861,80 40,80 C62.09139,80 80,62.09139 80,40 C80,17.90861 62.09139,0 40,0 Z M40,5.10638298 C59.2712125,5.10638298 74.893617,20.7287875 74.893617,40 C74.893617,59.2712125 59.2712125,74.893617 40,74.893617 C20.7287875,74.893617 5.10638298,59.2712125 5.10638298,40 C5.10638298,20.7287875 20.7287875,5.10638298 40,5.10638298 Z" id="path-1"></path>
    </defs>
    <g id="Page-1" stroke="none" stroke-width="1" fill="none" fill-rule="evenodd">
        <g id="Artwork" transform="translate(-90.000000, -55.000000)">
            <g id="Icon" transform="translate(90.000000, 55.000000)">
                <g id="Rectangle">
                    <circle id="Oval" fill="#FFFFFF" cx="40" cy="40" r="36"></circle>
                    <mask id="mask-2" fill="white">
                        <use xlink:href="#path-1"></use>
                    </mask>
                    <use id="Mask" fill="#A90061" fill-rule="nonzero" xlink:href="#path-1"></use>
                    <g id="cirkel" mask="url(#mask-2)" fill="#A90061">
                        <g id="Cirkel-kleur">
                            <rect id="Rectangle" x="0" y="0" width="80" height="80"></rect>
                        </g>
                    </g>
                </g>
                <g id="2081-wereldnieuws" transform="translate(8.000000, 8.000000)">
                    <g id="_x36_4px_Box">
                        <rect id="Rectangle" x="0" y="0" width="64" height="64"></rect>
                    </g>
                    <g id="Icon" transform="translate(8.000000, 8.000000)" fill="#A90061" fill-rule="nonzero">
                        <path d="M32.3,10.9 C30,6.3 25.8,0.6 20.8,0.4 L23.5,13.8 C26.9,13 29.8,12 32.3,10.9 Z M20.5,14.4 L17.8,1 C13.3,3.2 11.6,10 11.2,14.9 C14.1,15.1 17.3,14.9 20.5,14.4 Z M23,26.8 L21.1,17.4 C17.7,18 14.5,18.2 11.1,18 C11.1,21.5 11.5,24.6 12.3,27.7 C15.5,27.7 19.1,27.4 23,26.8 Z M13.1,30.7 C14,33.7 15.2,36.5 16.6,38.9 C19.2,38.8 22.1,38.5 25.3,38 L23.6,29.7 C20.1,30.3 16.5,30.7 13.1,30.7 Z M36.3,22.9 C35.8,19.8 35,16.8 33.7,13.6 C30.9,14.9 27.7,16 24.2,16.7 L26.1,26.1 C29.9,25.3 33.3,24.2 36.3,22.9 Z M39.1,21.6 C43.1,19.5 45.7,17.3 46.4,15.3 C45.3,12.5 43.8,10 41.8,7.9 C40.5,9.4 38.6,10.9 36.3,12.3 C37.6,15.4 38.5,18.3 39.1,21.6 Z M11.1,3.8 C7.5,6.1 4.7,9.2 2.7,12.9 C4.3,13.9 6.3,14.4 8.2,14.7 C8.5,10.9 9.4,7 11.1,3.8 Z M35,9.5 C37,8.3 38.6,7 39.6,5.8 C36.3,3 32.3,1.1 28,0.3 C31,2.7 33.3,6.1 35,9.5 Z M30.3,47.1 C33.5,45.6 35.1,41.8 36,38.4 C33.8,39.2 31.4,39.9 28.9,40.5 L30.3,47.1 Z M37,44.2 C41.2,41.5 44.5,37.4 46.3,32.8 C44.4,34.3 42.1,35.7 39.3,37 C38.9,39.4 38.3,41.8 37,44.2 Z M47.5,19.2 C47.5,19.2 47.5,19.2 47.5,19.2 C45.8,21.1 43,23.1 39.6,24.8 C40,27.7 40.1,30.6 39.8,33.3 C44.3,31 47.1,28.3 47.9,25.9 C48.1,23.8 48,21.5 47.5,19.2 Z M26.6,29.2 L28.3,37.5 C31.4,36.8 34.2,35.9 36.6,34.9 C36.9,32.2 37,29.2 36.7,26.2 C33.7,27.3 30.3,28.3 26.6,29.2 Z M10,30.6 C6.2,30.4 2.8,29.6 0.5,28.3 C1,30.8 1.8,33.1 2.9,35.3 C4.3,37.2 8,38.5 13.2,38.8 C11.9,36.4 10.8,33.6 10,30.6 Z M18.6,41.9 C20.7,44.7 23.8,47.5 27.2,47.7 L25.9,41 C23.4,41.4 20.9,41.7 18.6,41.9 Z M9.2,27.5 C8.5,24.2 8.1,21.1 8.1,17.7 C5.8,17.4 3.5,16.8 1.5,15.6 C0.5,18.2 0,21.1 0,24 C0.8,25.8 4.2,27.1 9.2,27.5 Z M15,42 C12,42 9.3,41.6 7.1,41 C10.6,44.5 15.1,46.8 20,47.7 C17.9,45.9 16.4,44.1 15,42 Z" id="Shape"></path>
                    </g>
                </g>
            </g>
        </g>
    </g>
</svg>