<?xml version="1.0" encoding="UTF-8"?>
<svg width="57px" height="57px" viewBox="0 0 57 57" version="1.1" xmlns="http://www.w3.org/2000/svg" xmlns:xlink="http://www.w3.org/1999/xlink">
    <!-- Generator: Sketch 61.2 (89653) - https://sketch.com -->
    <title>icon informatie</title>
    <desc>Created with Sketch.</desc>
    <g id="Presentatie" stroke="none" stroke-width="1" fill="none" fill-rule="evenodd">
        <g id="02-Kleuren-en-icons" transform="translate(-863.000000, -336.000000)">
            <g id="Group-15" transform="translate(865.000000, 336.000000)">
                <g id="icon-informatie" transform="translate(0.000000, 2.000000)">
                    <circle id="Oval" stroke="#A90061" stroke-width="3.621" fill="#FFFFFF" cx="26.554" cy="26.554" r="26.554"></circle>
                    <g id="2047-samenhang-van-documenten" transform="translate(11.000000, 10.000000)" fill="#A90061" fill-rule="nonzero">
                        <g id="Icon" transform="translate(0.500000, 0.500000)">
                            <g id="Group">
                                <path d="M20.5,12.475 L20.5,4.4175 C20.5,4.2782 20.44465,4.1446 20.3462,4.0462 L16.45375,0.15375 C16.3554,0.05535 16.2218,0 16.0825,0 L10.525,0 C10.2351,0 10,0.23505 10,0.525 L10,12.475 C10,12.7649 10.2351,13 10.525,13 L19.975,13 C20.2638,13 20.5,12.76365 20.5,12.475 Z M19,11.5 L11.5,11.5 L11.5,1.5 L16,1.5 L16,4 C16,4.27615 16.22385,4.5 16.5,4.5 L19,4.5 L19,11.5 Z" id="Shape"></path>
                                <path d="M6.4538,15.6538 C6.35535,15.55535 6.2218,15.5 6.0825,15.5 L0.525,15.5 C0.2351,15.5 0,15.73505 0,16.025 L0,27.975 C0,28.2649 0.2351,28.5 0.525,28.5 L9.975,28.5 C10.26375,28.5 10.5,28.26365 10.5,27.975 L10.5,19.9175 C10.5,19.7782 10.44465,19.6446 10.3462,19.5462 L6.4538,15.6538 Z M9,27 L1.5,27 L1.5,17 L6,17 L6,19.5 C6,19.77615 6.22385,20 6.5,20 L9,20 L9,27 Z" id="Shape"></path>
                                <path d="M30.3462,19.5462 L26.4538,15.65375 C26.35535,15.55535 26.2218,15.5 26.0825,15.5 L20.525,15.5 C20.2351,15.5 20,15.73505 20,16.025 L20,27.975 C20,28.2649 20.2351,28.5 20.525,28.5 L29.975,28.5 C30.26375,28.5 30.5,28.26365 30.5,27.975 L30.5,19.9175 C30.5,19.7782 30.44465,19.6446 30.3462,19.5462 Z M29,27 L21.5,27 L21.5,17 L26,17 L26,19.5 C26,19.77615 26.22385,20 26.5,20 L29,20 L29,27 Z" id="Shape"></path>
                                <polygon id="Path" points="16 14 14.5 14 14.5 18.58425 11.5 20.4593 11.5 22.2282 15.25 19.8845 19 22.2282 19 20.4593 16 18.58425"></polygon>
                            </g>
                        </g>
                    </g>
                </g>
            </g>
        </g>
    </g>
</svg>