<?xml version="1.0" standalone="no"?>
<!DOCTYPE svg PUBLIC "-//W3C//DTD SVG 20010904//EN"
 "http://www.w3.org/TR/2001/REC-SVG-20010904/DTD/svg10.dtd">
<svg version="1.0" xmlns="http://www.w3.org/2000/svg"
 width="824.000000pt" height="824.000000pt" viewBox="0 0 824.000000 824.000000"
 preserveAspectRatio="xMidYMid meet">
<metadata>
Created by potrace 1.11, written by Peter Selinger 2001-2013
</metadata>
<g transform="translate(0.000000,824.000000) scale(0.100000,-0.100000)"
fill="#000000" stroke="none">
<path d="M4905 8222 c-2 -2 -43 -6 -92 -7 -48 -2 -113 -7 -143 -10 -30 -3 -75
-8 -100 -11 -52 -6 -63 -7 -185 -28 -96 -17 -124 -22 -167 -32 -15 -3 -29 -5
-30 -4 -2 1 -16 -4 -33 -10 -16 -7 -39 -14 -50 -16 -59 -11 -224 -67 -360
-122 -108 -43 -377 -181 -395 -201 -3 -3 -16 -12 -30 -19 -23 -12 -188 -130
-235 -168 -147 -121 -307 -281 -418 -419 -36 -44 -117 -160 -117 -166 0 -4 -6
-14 -13 -21 -17 -17 -105 -170 -140 -243 -78 -163 -170 -396 -183 -461 -2 -12
-10 -39 -18 -62 -23 -65 -83 -316 -101 -424 -3 -18 -8 -40 -10 -48 -2 -8 -7
-35 -10 -60 -2 -25 -7 -56 -10 -70 -3 -14 -7 -45 -10 -70 -2 -25 -6 -58 -9
-75 -20 -120 -41 -445 -47 -735 l-3 -105 40 1 c21 0 59 4 84 8 25 4 83 13 130
21 47 8 101 17 120 20 19 3 51 8 70 10 19 3 46 7 60 10 14 3 34 7 46 9 21 4
108 16 154 21 14 2 39 5 55 8 44 8 105 17 142 22 18 2 40 6 50 9 10 2 41 7 68
11 28 3 62 8 76 10 38 7 99 16 138 20 18 2 35 6 37 8 2 2 6 75 8 163 3 87 5
159 6 159 1 0 3 25 5 55 1 30 6 80 9 110 3 30 8 84 12 120 3 36 8 68 10 72 3
4 7 26 10 50 3 24 10 63 15 88 6 25 11 54 13 65 4 33 27 128 37 155 5 14 11
34 13 45 6 30 71 214 92 260 10 22 18 42 19 45 1 12 81 160 111 208 19 29 34
56 34 61 0 5 3 11 8 13 4 2 27 30 52 63 96 127 251 268 384 349 33 20 201 109
201 106 0 -1 9 2 20 5 42 14 50 16 51 13 0 -2 8 3 17 11 10 7 17 10 17 6 0 -4
6 -3 13 3 6 5 28 13 47 18 50 11 50 11 53 14 1 1 9 3 17 5 124 27 180 36 190
30 6 -3 10 -2 10 2 0 5 8 9 18 10 9 0 62 4 117 8 151 11 220 10 481 -9 17 -2
36 -6 42 -10 7 -4 12 -5 12 -3 0 2 39 -4 88 -15 48 -10 98 -21 112 -24 14 -3
34 -9 45 -14 11 -5 38 -14 60 -21 108 -32 313 -144 420 -229 92 -73 217 -204
274 -289 14 -20 28 -37 33 -39 4 -2 8 -8 8 -13 0 -5 15 -32 34 -61 118 -185
249 -545 290 -793 3 -16 7 -41 10 -55 3 -14 7 -41 10 -60 3 -19 8 -46 10 -60
3 -14 7 -50 10 -80 4 -30 8 -66 11 -80 4 -24 11 -119 21 -290 5 -95 5 -538 0
-605 -3 -27 -7 -90 -10 -140 -4 -49 -9 -105 -11 -124 -3 -18 -8 -57 -10 -86
-3 -28 -8 -62 -10 -75 -3 -14 -7 -42 -10 -65 -32 -228 -120 -526 -216 -730
-12 -27 -22 -53 -21 -57 1 -5 -3 -8 -8 -8 -6 0 -10 -4 -10 -10 0 -14 -90 -164
-101 -168 -5 -2 -9 -8 -9 -14 0 -17 -99 -138 -175 -213 -117 -117 -197 -175
-365 -266 -35 -19 -124 -57 -138 -60 -4 0 -23 -8 -42 -16 -19 -8 -42 -16 -50
-18 -8 -2 -51 -12 -95 -23 -99 -26 -178 -39 -275 -49 -87 -9 -534 -9 -600 -1
-76 10 -174 29 -185 37 -5 4 -22 8 -36 9 -19 2 -28 -4 -38 -25 -7 -15 -17 -35
-22 -43 -24 -44 -50 -100 -49 -106 1 -4 -2 -10 -7 -13 -5 -3 -25 -37 -44 -76
-20 -38 -77 -149 -126 -245 -50 -96 -124 -240 -165 -320 l-75 -145 86 -29
c111 -36 208 -65 245 -72 16 -2 32 -7 36 -9 7 -4 116 -24 165 -30 218 -27 805
-26 1015 0 19 3 55 7 80 10 25 2 54 6 65 9 11 2 40 7 65 11 93 14 103 16 109
19 3 2 23 7 44 10 56 9 283 69 322 86 11 4 49 18 85 31 126 43 333 141 460
216 52 31 97 59 100 63 3 3 28 20 55 37 28 18 59 40 70 50 11 10 33 26 48 36
97 62 345 306 462 452 22 27 45 55 50 61 6 6 17 22 25 34 8 12 20 28 27 35 7
7 9 15 6 19 -4 3 -1 6 5 6 6 0 19 15 28 33 9 17 20 34 24 37 13 10 128 208
176 305 110 218 253 613 256 702 0 5 4 15 8 23 4 8 11 32 14 54 4 21 8 41 10
45 2 3 7 24 10 46 4 22 11 56 16 75 5 19 12 60 16 90 3 30 8 57 9 60 2 3 6 33
10 65 4 33 8 71 11 85 2 14 7 50 10 80 3 30 7 73 10 95 11 96 18 298 18 530
-1 299 -10 470 -38 695 -4 25 -9 68 -12 95 -3 28 -8 53 -9 56 -2 3 -7 28 -11
55 -3 27 -8 58 -10 69 -2 11 -6 32 -9 47 -3 16 -12 58 -21 95 -9 38 -17 75
-19 83 -2 8 -11 42 -20 75 -9 33 -18 67 -20 75 -8 36 -58 188 -71 217 -8 17
-14 35 -14 40 0 28 -141 337 -210 458 -32 57 -94 159 -100 165 -3 3 -9 12 -15
21 -43 68 -105 155 -140 195 -5 6 -23 28 -40 48 -106 131 -294 315 -420 410
-33 25 -66 51 -72 56 -7 6 -34 25 -60 42 -27 18 -49 36 -51 40 -2 4 -7 8 -12
8 -5 0 -45 23 -90 50 -45 28 -91 55 -103 60 -12 6 -29 14 -37 20 -13 9 -132
64 -225 104 -48 21 -170 66 -191 71 -10 2 -48 13 -84 25 -57 18 -112 33 -173
45 -9 2 -21 6 -26 10 -5 3 -31 8 -57 11 -27 3 -51 7 -55 10 -4 2 -24 6 -44 10
-21 3 -45 7 -54 9 -9 2 -44 6 -76 10 -33 4 -71 9 -85 11 -44 7 -148 16 -218
18 -38 2 -74 6 -80 10 -6 3 -13 2 -17 -3 -3 -6 -13 -7 -21 -4 -16 6 -273 10
-279 5z"/>
<path d="M5268 4835 c-2 -2 -24 -7 -48 -10 -25 -3 -52 -8 -61 -10 -9 -3 -36
-8 -60 -10 -24 -3 -82 -12 -129 -20 -89 -16 -123 -21 -180 -29 -53 -8 -172
-27 -200 -32 -14 -3 -41 -7 -60 -10 -19 -2 -46 -7 -60 -9 -14 -3 -41 -8 -60
-10 -48 -7 -90 -14 -119 -20 -12 -2 -42 -7 -65 -9 -22 -3 -52 -8 -66 -11 -14
-3 -38 -7 -55 -10 -16 -2 -41 -6 -55 -9 -14 -4 -43 -8 -65 -11 -64 -8 -91 -13
-122 -19 -15 -3 -46 -8 -68 -11 -23 -3 -52 -8 -65 -10 -30 -6 -72 -13 -120
-19 -19 -3 -48 -8 -65 -11 -74 -13 -102 -17 -130 -20 -28 -3 -56 -8 -115 -19
-14 -3 -41 -8 -60 -10 -19 -3 -46 -8 -60 -10 -14 -3 -61 -10 -105 -16 -44 -7
-89 -14 -100 -17 -20 -5 -29 -6 -120 -18 -27 -4 -65 -11 -84 -15 -19 -5 -38
-7 -42 -4 -4 2 -10 0 -14 -6 -4 -6 -10 -8 -14 -5 -7 4 -47 -1 -141 -19 -38 -7
-172 -28 -195 -30 -11 -1 -33 -5 -50 -9 -16 -3 -47 -9 -67 -12 -72 -10 -113
-16 -138 -21 -14 -3 -38 -7 -55 -9 -30 -4 -96 -15 -125 -20 -8 -1 -35 -6 -60
-10 -25 -4 -52 -8 -60 -10 -43 -7 -117 -19 -135 -20 -11 -2 -36 -6 -55 -10
-19 -3 -46 -8 -60 -10 -21 -3 -343 -55 -430 -69 -135 -23 -179 -30 -200 -32
-14 -1 -68 -10 -120 -18 -52 -9 -108 -19 -125 -22 -16 -2 -41 -6 -55 -9 -14
-3 -38 -7 -55 -9 -58 -9 -120 -18 -140 -22 -11 -3 -36 -7 -55 -9 -19 -3 -51
-8 -70 -11 -19 -4 -44 -8 -55 -9 -21 -3 -77 -12 -135 -22 -19 -3 -41 -6 -48
-6 -17 0 -10 -20 9 -22 7 -2 52 -17 99 -35 134 -50 177 -66 300 -110 63 -23
124 -45 135 -50 18 -8 74 -28 350 -127 39 -13 79 -28 90 -33 11 -4 36 -13 55
-20 19 -7 44 -16 55 -20 52 -21 798 -292 810 -294 6 -2 27 -10 49 -19 21 -9
44 -17 52 -17 7 0 15 -4 18 -9 3 -4 20 -11 37 -15 17 -3 45 -12 62 -20 18 -8
73 -29 122 -46 109 -38 190 -68 230 -85 17 -7 70 -25 118 -41 81 -27 89 -31
95 -59 3 -16 5 -34 3 -40 -2 -5 -3 -28 -2 -50 0 -22 0 -58 0 -80 -1 -54 -1
-57 4 -80 2 -11 1 -34 -4 -52 -4 -18 -3 -35 2 -38 4 -3 5 -16 1 -28 -4 -12 -6
-40 -5 -62 7 -125 7 -155 2 -155 -6 0 -2 -67 5 -86 3 -7 2 -15 -1 -18 -4 -3
-6 -43 -4 -89 1 -45 2 -86 2 -92 -2 -75 -2 -322 -1 -330 1 -5 1 -14 0 -20 -4
-20 -3 -1665 1 -1669 4 -5 23 28 119 209 26 50 67 126 90 170 24 44 61 115 84
158 68 130 109 207 162 307 28 52 75 140 104 195 29 55 66 125 83 155 16 30
61 116 100 190 39 74 73 137 77 140 6 5 24 45 19 45 -1 0 13 24 30 53 17 29
31 57 31 62 0 6 5 10 12 10 6 0 8 3 5 7 -4 3 -3 11 2 17 5 6 32 56 61 111 29
55 65 123 80 150 15 28 49 93 76 145 27 52 51 97 54 100 3 3 25 46 50 95 25
50 47 92 51 95 3 3 13 23 23 45 11 22 22 42 25 45 3 3 28 48 54 100 27 52 60
115 73 140 14 25 56 104 93 175 82 155 142 268 186 350 18 33 56 105 85 160
29 55 73 138 98 185 25 47 62 117 81 155 20 39 38 72 41 75 3 3 27 48 54 100
27 52 61 118 76 145 15 28 47 88 71 135 24 47 46 87 49 90 3 3 16 28 30 55 13
28 35 67 47 88 13 20 21 37 17 37 -3 0 3 12 13 28 11 15 34 56 53 92 18 36 42
79 51 97 10 18 15 35 10 37 -5 3 -10 3 -13 1z"/>
</g>
</svg>
