<?xml version="1.0" encoding="UTF-8" standalone="no"?><svg xmlns="http://www.w3.org/2000/svg" data-name="Laag 1" height="75" id="Laag_1" viewBox="0 0 272.13 75" width="272.13"><defs><style>.cls-1{fill:#3ba9d7;}.cls-2{fill:#0095c9;}.cls-3{fill:#255488;}.cls-4{fill:#fff;}</style></defs><title>logo-loonaangifteketen-desktop</title><path class="cls-1" d="M24.91,48.93,16.76,34.86a11.9,11.9,0,0,1-1.63-5.67L7.89,32.55A13.45,13.45,0,0,0,5.82,55.86L20.73,66.28A13.57,13.57,0,0,0,42,56.41l.32-3.59a12.17,12.17,0,0,1-16.93-3.09C25.24,49.47,25.07,49.2,24.91,48.93Z"/><path class="cls-2" d="M43.56,16.75H27.26A12.12,12.12,0,0,0,15.11,28.84c0,.11,0,.21,0,.32l9.3-4.31A13.57,13.57,0,0,1,43.66,38.3L42.38,52.78a12,12,0,0,0,3.56-3.89l8.15-14.07A12.07,12.07,0,0,0,43.56,16.75Z"/><path class="cls-3" d="M24.39,24.89l-9.31,4.3a12,12,0,0,0,1.64,5.67l8.15,14.07a12.17,12.17,0,0,0,16.64,4.4c.27-.16.54-.33.8-.51L43.6,38.34A13.56,13.56,0,0,0,24.39,24.89Z"/><path class="cls-4" d="M40.26,27.82a11,11,0,0,1,9.61,5.54l7.77,13.41A11.06,11.06,0,0,1,48,63.31H32.51a11.06,11.06,0,0,1-9.62-16.54L30.65,33.4a11,11,0,0,1,9.61-5.58m0-.43a11.41,11.41,0,0,0-10,5.75L22.48,46.55a11.49,11.49,0,0,0,10,17.24H48A11.49,11.49,0,0,0,58,46.55L50.21,33.18a11.43,11.43,0,0,0-10-5.75Z"/><path class="cls-3" d="M63.14,55.48h-3V37l3-.16Z"/><path class="cls-3" d="M72,55.74c-3.64,0-6.2-2.23-6.2-6.57s3-7.09,6.58-7.09,6.2,2.24,6.2,6.61S75.52,55.74,72,55.74Zm.19-11c-1.84,0-3.29,1.52-3.29,4.31s1.28,4,3.29,4c1.84,0,3.29-1.52,3.29-4.32s-1.28-4-3.29-4Z"/><path class="cls-3" d="M86.6,55.74c-3.65,0-6.21-2.23-6.21-6.57s3-7.09,6.58-7.09,6.2,2.24,6.2,6.61S90.17,55.74,86.6,55.74Zm.18-11c-1.84,0-3.29,1.52-3.29,4.31s1.28,4,3.29,4c1.84,0,3.29-1.52,3.29-4.32s-1.26-4-3.24-4Z"/><path class="cls-3" d="M103.9,47.41a2.16,2.16,0,0,0-1.78-2.47,2.36,2.36,0,0,0-.65,0,6.11,6.11,0,0,0-2.57.5V55.49h-3V42.37l2.94-.13v1a6.16,6.16,0,0,1,3.51-1c2.88,0,4.6,1.65,4.6,4.66v8.69h-3Z"/><path class="cls-1" d="M119.92,55.48h-2.84v-.85a6.43,6.43,0,0,1-3.74,1c-2.7,0-4.2-1.47-4.2-3.67,0-2.42,1.87-4.14,6-4.14H117v-.74c0-1.44-.86-2.23-2.94-2.23a9,9,0,0,0-3.77.79l-.43-2.53a11.69,11.69,0,0,1,4.76-1c3.56,0,5.33,1.68,5.33,4.64Zm-5.7-2.24a5.41,5.41,0,0,0,2.75-.69V50.07c-.51,0-1.2,0-1.74,0-2.16,0-3,.69-3,1.7S113,53.24,114.22,53.24Z"/><path class="cls-1" d="M132.9,55.48H130v-.85a6.43,6.43,0,0,1-3.74,1c-2.7,0-4.2-1.47-4.2-3.67,0-2.42,1.87-4.14,6-4.14h1.82v-.74c0-1.44-.86-2.23-2.94-2.23a9.12,9.12,0,0,0-3.78.79l-.42-2.53a11.65,11.65,0,0,1,4.76-1c3.55,0,5.32,1.68,5.32,4.64Zm-5.69-2.24a5.41,5.41,0,0,0,2.75-.69V50.07c-.51,0-1.2,0-1.74,0-2.16,0-3,.69-3,1.7s.73,1.52,2,1.52Z"/><path class="cls-1" d="M144.15,47.41a2.16,2.16,0,0,0-1.79-2.47,2.36,2.36,0,0,0-.65,0,6.09,6.09,0,0,0-2.56.5V55.49h-3V42.37l2.94-.13v1a6.15,6.15,0,0,1,3.5-1c2.89,0,4.61,1.65,4.61,4.66v8.69h-3Z"/><path class="cls-1" d="M154.28,52.92h3.15c2.84,0,4,1.12,4,3.25,0,2.5-2.07,4.53-6.9,4.53-3.78,0-5.51-1.34-5.51-3.38a3,3,0,0,1,2-2.86v-.08a2,2,0,0,1-1-1.76,2.11,2.11,0,0,1,1.47-2v-.08a3.66,3.66,0,0,1-1.91-3.48c0-3.2,2.17-4.92,5.52-4.92a7.63,7.63,0,0,1,2.07.26h4.28v2h-2.07v.08a3.12,3.12,0,0,1,1,2.49c0,2.9-2,4.42-5.61,4.42a6.2,6.2,0,0,1-1.66-.22,1.09,1.09,0,0,0-.56.83C152.59,52.64,153.05,52.92,154.28,52.92Zm.56,5.54c2.88,0,3.93-.72,3.93-1.75,0-.78-.49-1.2-1.79-1.22l-4.39-.14a1.54,1.54,0,0,0-.72,1.39c0,1.07.91,1.71,3,1.71Zm2.78-11.71a2.25,2.25,0,0,0-2-2.47,2.09,2.09,0,0,0-.56,0,2.39,2.39,0,0,0-2.58,2.17,2.36,2.36,0,0,0,0,.46,2.19,2.19,0,0,0,1.92,2.43,1.94,1.94,0,0,0,.59,0,2.3,2.3,0,0,0,2.62-1.94,2.5,2.5,0,0,0,0-.67Z"/><path class="cls-1" d="M165,36.83a1.65,1.65,0,0,1,1.79,1.49,1.92,1.92,0,0,1,0,.24,1.66,1.66,0,0,1-1.65,1.68H165a1.59,1.59,0,0,1-1.76-1.42,2.72,2.72,0,0,1,0-.28,1.65,1.65,0,0,1,1.61-1.7Zm1.52,18.61h-3V42.37l3-.13Z"/><path class="cls-1" d="M173.4,55.48h-3V44.61h-1.69V42.3h1.69v-1c0-2.86,1.58-4.53,5.17-4.53a7.16,7.16,0,0,1,1.9.22l-.23,2.34a8.69,8.69,0,0,0-1.61-.15c-1.55,0-2.22.66-2.22,2.07v1h5.43V39.89l3-.27V42.3h3.34v2.32h-3.34v6.2c0,1.52.81,2.18,2,2.18a6.57,6.57,0,0,0,1.71-.21v2.5a9.09,9.09,0,0,1-2.6.32c-2.46,0-4.13-1.39-4.13-4.4v-6.6h-5.43Z"/><path class="cls-1" d="M192.68,42.05c3.23,0,5.24,2,5.24,5.38a18.81,18.81,0,0,1-.08,2.23h-8.18c.32,2.35,1.68,3.42,4.06,3.42a11.48,11.48,0,0,0,3.85-.64v2.5a12.19,12.19,0,0,1-4.23.69c-4,0-6.63-2.13-6.63-6.71S189.39,42.05,192.68,42.05Zm2.3,5.42c0-1.81-1-3-2.51-3s-2.48,1-2.75,3Z"/><path class="cls-1" d="M203.54,55.48h-3V37l3-.16v10.2h1.12l3.8-4.76h3.45l-4.57,5.56,4.92,7.63h-3.64l-3.74-6.07h-1.31Z"/><path class="cls-1" d="M219,42.05c3.23,0,5.24,2,5.24,5.38a18.81,18.81,0,0,1-.08,2.23H216c.32,2.35,1.68,3.42,4.06,3.42a11.48,11.48,0,0,0,3.85-.64v2.5a12.19,12.19,0,0,1-4.23.69c-4,0-6.63-2.13-6.63-6.71S215.73,42.05,219,42.05Zm2.3,5.42c0-1.81-1-3-2.51-3s-2.48,1-2.75,3Z"/><path class="cls-1" d="M225.71,42.3h1.6V39.89l3-.27V42.3h3.34v2.32h-3.33v6.2c0,1.52.81,2.18,2,2.18a6.49,6.49,0,0,0,1.7-.21v2.5a9.06,9.06,0,0,1-2.59.32c-2.46,0-4.14-1.39-4.14-4.4v-6.6h-1.6Z"/><path class="cls-1" d="M241.16,42.05c3.23,0,5.24,2,5.24,5.38a18.81,18.81,0,0,1-.08,2.23h-8.18c.32,2.35,1.68,3.42,4.06,3.42a11.48,11.48,0,0,0,3.85-.64v2.5a12.19,12.19,0,0,1-4.23.69c-4,0-6.63-2.13-6.63-6.71S237.87,42.05,241.16,42.05Zm2.3,5.42c0-1.81-1-3-2.51-3s-2.49,1-2.75,3Z"/><path class="cls-1" d="M257,47.41a2.16,2.16,0,0,0-1.78-2.47,2.36,2.36,0,0,0-.65,0,6.08,6.08,0,0,0-2.53.46v10H249V42.37l2.93-.13v1a6.16,6.16,0,0,1,3.51-1c2.88,0,4.6,1.65,4.6,4.66v8.69h-3Z"/></svg>